<svg width="35" height="35" viewBox="0 0 35 35" fill="none" xmlns="http://www.w3.org/2000/svg">
<path d="M17.5002 3.27966C9.66004 3.27966 3.28143 9.65827 3.28143 17.4984C3.28143 25.3385 9.66004 31.7172 17.5002 31.7172C25.3403 31.7172 31.7189 25.3385 31.7189 17.4984C31.7189 9.65827 25.3403 3.27966 17.5002 3.27966ZM17.6369 9.84216C18.6104 9.84216 19.5619 10.1308 20.3713 10.6716C21.1807 11.2125 21.8116 11.9812 22.1841 12.8805C22.5566 13.7799 22.6541 14.7695 22.4642 15.7242C22.2743 16.679 21.8055 17.556 21.1172 18.2443C20.4289 18.9327 19.5519 19.4014 18.5971 19.5913C17.6424 19.7812 16.6527 19.6838 15.7534 19.3113C14.854 18.9387 14.0853 18.3079 13.5445 17.4985C13.0037 16.6891 12.715 15.7375 12.715 14.764C12.715 13.4587 13.2336 12.2068 14.1566 11.2837C15.0796 10.3607 16.3315 9.84216 17.6369 9.84216V9.84216ZM17.5002 29.5297C15.8407 29.5303 14.1992 29.1869 12.6792 28.5209C11.1593 27.8549 9.79394 26.881 8.66952 25.6605C9.27381 22.531 14.7015 21.8734 17.5002 21.8734C20.2988 21.8734 25.7265 22.531 26.3308 25.6598C25.2066 26.8805 23.8413 27.8547 22.3213 28.5207C20.8013 29.1868 19.1597 29.5304 17.5002 29.5297V29.5297Z" fill="#F7F7F7"/>
</svg>
