<svg width="30" height="30" viewBox="0 0 30 30" fill="none" xmlns="http://www.w3.org/2000/svg">
<path d="M10.3123 26.2499C11.3479 26.2499 12.1873 25.4104 12.1873 24.3749C12.1873 23.3393 11.3479 22.4999 10.3123 22.4999C9.27678 22.4999 8.43732 23.3393 8.43732 24.3749C8.43732 25.4104 9.27678 26.2499 10.3123 26.2499Z" fill="#F7F7F7"/>
<path d="M23.4374 26.2499C24.4729 26.2499 25.3124 25.4104 25.3124 24.3749C25.3124 23.3393 24.4729 22.4999 23.4374 22.4999C22.4018 22.4999 21.5624 23.3393 21.5624 24.3749C21.5624 25.4104 22.4018 26.2499 23.4374 26.2499Z" fill="#F7F7F7"/>
<path d="M26.7655 7.07732C26.6338 6.91621 26.4679 6.78646 26.2798 6.69748C26.0916 6.60849 25.8861 6.56251 25.678 6.56287H7.84499L7.48581 4.52498C7.44752 4.3079 7.33395 4.11127 7.16507 3.96961C6.9962 3.82794 6.7828 3.75032 6.56238 3.75037H2.81238C2.56374 3.75037 2.32528 3.84914 2.14947 4.02495C1.97365 4.20077 1.87488 4.43923 1.87488 4.68787C1.87488 4.93651 1.97365 5.17496 2.14947 5.35078C2.32528 5.52659 2.56374 5.62537 2.81238 5.62537H5.77605L8.45144 20.7883C8.48974 21.0053 8.6033 21.202 8.77218 21.3436C8.94106 21.4853 9.15445 21.5629 9.37488 21.5629H24.3749C24.6235 21.5629 24.862 21.4641 25.0378 21.2883C25.2136 21.1125 25.3124 20.874 25.3124 20.6254C25.3124 20.3767 25.2136 20.1383 25.0378 19.9624C24.862 19.7866 24.6235 19.6879 24.3749 19.6879H10.1612L9.83074 17.8129H23.9905C24.3156 17.8124 24.6306 17.6997 24.8822 17.4938C25.1337 17.2878 25.3064 17.0012 25.371 16.6826L27.0585 8.24509C27.0991 8.04089 27.0939 7.83021 27.0433 7.62827C26.9926 7.42632 26.8977 7.23814 26.7655 7.07732V7.07732Z" fill="#F7F7F7"/>
</svg>
