<svg width="30" height="30" viewBox="0 0 30 30" fill="none" xmlns="http://www.w3.org/2000/svg">
<path d="M24.851 11.2502H21.0946L15.7508 4.12524C15.6635 4.00881 15.5503 3.91431 15.4201 3.84922C15.2899 3.78413 15.1464 3.75024 15.0008 3.75024C14.8553 3.75024 14.7117 3.78413 14.5815 3.84922C14.4514 3.91431 14.3381 4.00881 14.2508 4.12524L8.90706 11.2502H5.15062C4.64529 11.2495 4.16028 11.4491 3.80197 11.8055C3.44366 12.1618 3.24131 12.6457 3.23929 13.151C3.2382 13.3297 3.26408 13.5074 3.31605 13.6784L6.02718 23.2373C6.20347 23.8604 6.57841 24.4087 7.09496 24.7991C7.61151 25.1895 8.24143 25.4005 8.8889 25.4H21.1127C21.7603 25.398 22.3898 25.1866 22.9072 24.7974C23.4247 24.4081 23.8024 23.8619 23.9838 23.2403L26.6985 13.6684C26.711 13.6231 26.72 13.5768 26.7254 13.5301L26.7565 13.2413C26.76 13.2111 26.7618 13.1808 26.7617 13.1504C26.7596 12.6453 26.5572 12.1617 26.1991 11.8055C25.8409 11.4493 25.3561 11.2496 24.851 11.2502V11.2502ZM15.0008 6.25044L18.7508 11.2502H11.2508L15.0008 6.25044ZM15.0008 20.6059C14.5644 20.6038 14.1383 20.4725 13.7765 20.2285C13.4146 19.9845 13.1331 19.6388 12.9675 19.235C12.8019 18.8312 12.7597 18.3873 12.8461 17.9595C12.9325 17.5317 13.1437 17.1391 13.4531 16.8312C13.7624 16.5234 14.1561 16.314 14.5843 16.2296C15.0125 16.1453 15.4561 16.1896 15.8591 16.3571C16.2621 16.5246 16.6065 16.8077 16.8488 17.1708C17.091 17.5338 17.2203 17.9605 17.2203 18.3969C17.2171 18.9834 16.9818 19.5447 16.5659 19.9582C16.15 20.3717 15.5873 20.6037 15.0008 20.6036V20.6059Z" fill="#F7F7F7"/>
</svg>
