<svg width="50" height="50" viewBox="0 0 50 50" fill="none" xmlns="http://www.w3.org/2000/svg">
<path d="M25.0002 4.68518C13.8 4.68518 4.68774 13.7975 4.68774 24.9977C4.68774 36.1979 13.8 45.3102 25.0002 45.3102C36.2004 45.3102 45.3127 36.1979 45.3127 24.9977C45.3127 13.7975 36.2004 4.68518 25.0002 4.68518ZM25.1956 14.0602C26.5862 14.0602 27.9456 14.4726 29.1019 15.2452C30.2582 16.0178 31.1594 17.1159 31.6916 18.4007C32.2238 19.6855 32.363 21.0992 32.0917 22.4632C31.8204 23.8271 31.1507 25.0799 30.1674 26.0633C29.1841 27.0466 27.9312 27.7163 26.5673 27.9876C25.2034 28.2589 23.7896 28.1196 22.5048 27.5875C21.22 27.0553 20.1219 26.1541 19.3493 24.9978C18.5767 23.8415 18.1643 22.4821 18.1643 21.0914C18.1643 19.2266 18.9051 17.4382 20.2237 16.1196C21.5423 14.801 23.3307 14.0602 25.1956 14.0602ZM25.0002 42.1852C22.6296 42.1862 20.2845 41.6955 18.1131 40.7441C15.9418 39.7927 13.9913 38.4013 12.385 36.6578C13.2483 32.1871 21.0022 31.2477 25.0002 31.2477C28.9983 31.2477 36.7522 32.1871 37.6155 36.6569C36.0094 38.4007 34.059 39.7923 31.8876 40.7439C29.7162 41.6954 27.371 42.1862 25.0002 42.1852Z" fill="url(#paint0_linear_1_387)"/>
<defs>
<linearGradient id="paint0_linear_1_387" x1="41.5" y1="14" x2="7.5" y2="37" gradientUnits="userSpaceOnUse">
<stop stop-color="#753EF9"/>
<stop offset="1" stop-color="#9D75FF"/>
</linearGradient>
</defs>
</svg>
