<svg width="84" height="84" viewBox="0 0 84 84" fill="none" xmlns="http://www.w3.org/2000/svg">
<path d="M42.0033 73.5018L40.5267 72.5175C33.5081 67.8302 24.6274 62.5326 18.0502 54.7462C11.1185 46.5431 7.793 38.1185 7.87831 28.9884C7.98167 18.7935 16.1569 10.5018 26.1024 10.5018C33.9954 10.5018 39.2438 15.0956 42.0033 18.4113C44.7628 15.0956 50.0112 10.5018 57.9042 10.5018C67.8497 10.5018 76.0249 18.7935 76.1283 28.9835C76.2202 38.1185 72.8946 46.5382 65.9564 54.7413C59.3792 62.5326 50.4985 67.8302 43.4799 72.5175L42.0033 73.5018Z" fill="url(#paint0_linear_1_2443)"/>
<defs>
<linearGradient id="paint0_linear_1_2443" x1="17.8794" y1="58.049" x2="74.5982" y2="51.3716" gradientUnits="userSpaceOnUse">
<stop stop-color="#C62C44"/>
<stop offset="1" stop-color="#FF0027"/>
</linearGradient>
</defs>
</svg>
