<svg width="78" height="78" viewBox="0 0 78 78" fill="none" xmlns="http://www.w3.org/2000/svg">
<path d="M33.2292 25.4744C33.2292 27.4549 33.2292 29.3744 33.8538 31.1721C27.2877 38.8807 8.33618 60.8029 8.33618 60.8029L8.77798 66.333C8.77798 66.333 14.0795 71.3604 14.8717 70.5986C17.2178 68.3135 18.6499 66.7596 18.6499 66.7596L19.7528 60.1555L26.9297 59.6269L27.5056 52.4972L35.0664 52.3524L35.1411 44.7215L43.1681 45.0415L44.5392 42.1713C46.9005 43.192 49.0485 43.6033 51.806 43.6033C62.2415 43.6033 70.6966 35.4682 70.6966 25.444C70.6966 15.4197 62.2354 7.31506 51.7999 7.31506C41.3643 7.31506 33.2292 15.4502 33.2292 25.4744ZM61.984 21.9401C61.984 23.1106 61.6369 24.2549 60.9866 25.2282C60.3362 26.2015 59.4119 26.9601 58.3304 27.4081C57.2489 27.8561 56.0589 27.9733 54.9108 27.7449C53.7627 27.5165 52.7082 26.9528 51.8804 26.1251C51.0527 25.2974 50.489 24.2428 50.2606 23.0947C50.0323 21.9466 50.1495 20.7566 50.5974 19.6751C51.0454 18.5937 51.804 17.6693 52.7773 17.019C53.7506 16.3686 54.8949 16.0215 56.0655 16.0215C56.8429 16.0207 57.6129 16.1732 58.3314 16.4704C59.0498 16.7675 59.7026 17.2035 60.2523 17.7532C60.8021 18.303 61.238 18.9557 61.5351 19.6742C61.8323 20.3926 61.9848 21.1626 61.984 21.9401V21.9401Z" fill="url(#paint0_linear_1_2433)"/>
<defs>
<linearGradient id="paint0_linear_1_2433" x1="17.4752" y1="55.1356" x2="69.421" y2="49.58" gradientUnits="userSpaceOnUse">
<stop stop-color="#C62C44"/>
<stop offset="1" stop-color="#FF0027"/>
</linearGradient>
</defs>
</svg>
