<svg width="84" height="84" viewBox="0 0 84 84" fill="none" xmlns="http://www.w3.org/2000/svg">
<path d="M24.9373 42.0008C31.4611 42.0008 36.7497 36.7122 36.7497 30.1884C36.7497 23.6645 31.4611 18.3759 24.9373 18.3759C18.4134 18.3759 13.1248 23.6645 13.1248 30.1884C13.1248 36.7122 18.4134 42.0008 24.9373 42.0008Z" fill="url(#paint0_linear_1_2435)"/>
<path d="M38.3904 48.5646C33.7704 46.2185 28.6713 45.2833 24.9373 45.2833C17.6233 45.2833 2.62476 49.7688 2.62476 58.7365V65.6271H27.2341V62.9906C27.2341 59.8734 28.5466 56.748 30.8435 54.1427C32.6761 52.0624 35.242 50.1314 38.3904 48.5646Z" fill="url(#paint1_linear_1_2435)"/>
<path d="M55.781 47.2531C47.2383 47.2531 30.1873 52.5293 30.1873 63.003V70.878H81.3747V63.003C81.3747 52.5293 64.3237 47.2531 55.781 47.2531Z" fill="url(#paint2_linear_1_2435)"/>
<path d="M55.781 42.0005C63.7546 42.0005 70.2185 35.5366 70.2185 27.563C70.2185 19.5894 63.7546 13.1255 55.781 13.1255C47.8074 13.1255 41.3435 19.5894 41.3435 27.563C41.3435 35.5366 47.8074 42.0005 55.781 42.0005Z" fill="url(#paint3_linear_1_2435)"/>
<defs>
<linearGradient id="paint0_linear_1_2435" x1="16.587" y1="36.206" x2="36.2593" y2="34.0683" gradientUnits="userSpaceOnUse">
<stop stop-color="#C62C44"/>
<stop offset="1" stop-color="#FF0027"/>
</linearGradient>
<linearGradient id="paint1_linear_1_2435" x1="7.86627" y1="60.6371" x2="36.9385" y2="55.083" gradientUnits="userSpaceOnUse">
<stop stop-color="#C62C44"/>
<stop offset="1" stop-color="#FF0027"/>
</linearGradient>
<linearGradient id="paint2_linear_1_2435" x1="37.6889" y1="65.0832" x2="78.5503" y2="55.4626" gradientUnits="userSpaceOnUse">
<stop stop-color="#C62C44"/>
<stop offset="1" stop-color="#FF0027"/>
</linearGradient>
<linearGradient id="paint3_linear_1_2435" x1="45.5752" y1="34.9179" x2="69.619" y2="32.3052" gradientUnits="userSpaceOnUse">
<stop stop-color="#C62C44"/>
<stop offset="1" stop-color="#FF0027"/>
</linearGradient>
</defs>
</svg>
