<svg width="60" height="30" viewBox="0 0 60 30" fill="none" xmlns="http://www.w3.org/2000/svg">
<path d="M47.9999 8.25037V21.7504" stroke="white" stroke-width="1.5" stroke-linecap="round" stroke-linejoin="round"/>
<path d="M54.7499 15.0004H41.2499" stroke="white" stroke-width="1.5" stroke-linecap="round" stroke-linejoin="round"/>
<path d="M2.78311 6.09069H25.3124V3.01569C25.3124 2.87697 25.2816 2.73998 25.2223 2.61459C25.1629 2.4892 25.0765 2.37854 24.9692 2.2906C24.862 2.20265 24.7365 2.13961 24.6019 2.10602C24.4673 2.07243 24.3269 2.06913 24.1909 2.09636L2.62842 5.64011C2.46786 5.67207 2.31846 5.74552 2.19511 5.85315C2.07175 5.96078 1.97873 6.09884 1.92529 6.25358C2.19838 6.14561 2.48945 6.09034 2.78311 6.09069V6.09069Z" fill="#F7F7F7"/>
<path d="M27.1581 7.49976H2.78308C2.53444 7.49976 2.29598 7.59853 2.12017 7.77434C1.94435 7.95016 1.84558 8.18862 1.84558 8.43726V25.3123C1.84558 25.5609 1.94435 25.7993 2.12017 25.9752C2.29598 26.151 2.53444 26.2497 2.78308 26.2497H27.1581C27.4067 26.2497 27.6452 26.151 27.821 25.9752C27.9968 25.7993 28.0956 25.5609 28.0956 25.3123V8.43726C28.0956 8.18862 27.9968 7.95016 27.821 7.77434C27.6452 7.59853 27.4067 7.49976 27.1581 7.49976ZM21.5624 18.7498C21.1915 18.7498 20.829 18.6398 20.5207 18.4338C20.2123 18.2277 19.972 17.9349 19.8301 17.5923C19.6882 17.2497 19.6511 16.8727 19.7234 16.509C19.7957 16.1452 19.9743 15.8112 20.2365 15.5489C20.4988 15.2867 20.8329 15.1081 21.1966 15.0358C21.5603 14.9634 21.9373 15.0006 22.2799 15.1425C22.6225 15.2844 22.9153 15.5247 23.1214 15.8331C23.3274 16.1414 23.4374 16.5039 23.4374 16.8748C23.4374 17.372 23.2398 17.8489 22.8882 18.2006C22.5366 18.5522 22.0597 18.7498 21.5624 18.7498Z" fill="#F7F7F7"/>
<path d="M1.83569 15.2019V6.7937C1.83569 6.07124 2.17085 5.71089 2.73921 5.62183C4.80171 5.2978 9.10132 5.12378 9.10132 5.12378C9.10132 5.12378 8.61323 6.06128 7.49995 6.06128V7.49683C8.58394 7.49683 9.33569 8.87378 9.33569 8.87378L4.97046 13.8249L1.83569 15.2019Z" fill="#F7F7F7"/>
</svg>
