<svg width="45" height="45" viewBox="0 0 45 45" fill="none" xmlns="http://www.w3.org/2000/svg">
<path d="M2.8125 33.0457C2.8125 34.351 3.33105 35.6029 4.25408 36.5259C5.17711 37.449 6.42901 37.9675 7.73437 37.9675H37.2656C38.571 37.9675 39.8229 37.449 40.7459 36.5259C41.6689 35.6029 42.1875 34.351 42.1875 33.0457V19.5105H2.8125V33.0457ZM8.61328 26.366C8.61328 25.6667 8.89108 24.996 9.38556 24.5015C9.88004 24.007 10.5507 23.7292 11.25 23.7292H15.4687C16.168 23.7292 16.8387 24.007 17.3332 24.5015C17.8277 24.996 18.1055 25.6667 18.1055 26.366V28.1238C18.1055 28.8231 17.8277 29.4937 17.3332 29.9882C16.8387 30.4827 16.168 30.7605 15.4687 30.7605H11.25C10.5507 30.7605 9.88004 30.4827 9.38556 29.9882C8.89108 29.4937 8.61328 28.8231 8.61328 28.1238V26.366Z" fill="#F7F7F7"/>
<path d="M37.2656 7.02881H7.73437C6.42901 7.02881 5.17711 7.54736 4.25408 8.47039C3.33105 9.39342 2.8125 10.6453 2.8125 11.9507V14.2358H42.1875V11.9507C42.1875 10.6453 41.6689 9.39342 40.7459 8.47039C39.8229 7.54736 38.571 7.02881 37.2656 7.02881V7.02881Z" fill="#F7F7F7"/>
</svg>
