<svg width="65" height="65" viewBox="0 0 65 65" fill="none" xmlns="http://www.w3.org/2000/svg">
<path d="M60.7853 26.4349C60.7853 27.3389 60.5173 28.2225 60.0151 28.9741C59.5129 29.7256 58.7991 30.3114 57.964 30.6574C57.1289 31.0033 56.21 31.0938 55.3234 30.9174C54.4369 30.7411 53.6225 30.3058 52.9833 29.6666C52.3442 29.0275 51.9089 28.2131 51.7325 27.3266C51.5562 26.44 51.6467 25.5211 51.9926 24.686C52.3385 23.8508 52.9243 23.1371 53.6759 22.6349C54.4275 22.1327 55.3111 21.8646 56.215 21.8646C57.4272 21.8646 58.5896 22.3461 59.4467 23.2032C60.3038 24.0603 60.7853 25.2228 60.7853 26.4349ZM56.1896 17.6498C53.8685 17.6503 51.6412 18.5666 49.9916 20.1996C48.342 21.8326 47.4032 24.0504 47.3791 26.3715L41.8947 34.2426C41.6671 34.2172 41.4382 34.2045 41.2092 34.2045C40.0286 34.2037 38.8701 34.5241 37.8576 35.1312L13.0002 25.14C12.7344 23.9286 12.1315 22.8171 11.2611 21.9336C10.3906 21.0502 9.28811 20.431 8.08077 20.1473C6.87343 19.8637 5.6105 19.9272 4.43773 20.3306C3.26496 20.734 2.23018 21.4609 1.4528 22.4272C0.675431 23.3935 0.187164 24.56 0.0443563 25.792C-0.0984509 27.0239 0.110024 28.2712 0.645719 29.3897C1.18141 30.5082 2.02249 31.4525 3.07187 32.1135C4.12125 32.7745 5.33616 33.1253 6.57637 33.1254C7.75693 33.1261 8.91546 32.8058 9.92793 32.1986L34.7854 42.1771C35.1169 43.708 35.9843 45.0701 37.2313 46.0179C38.4784 46.9657 40.0229 47.4369 41.5867 47.3465C43.1504 47.2561 44.6304 46.6102 45.76 45.525C46.8895 44.4399 47.5943 42.9869 47.7473 41.4281L56.1896 35.2582C58.5247 35.2582 60.764 34.3306 62.4152 32.6795C64.0663 31.0284 64.9938 28.789 64.9938 26.454C64.9938 24.119 64.0663 21.8796 62.4152 20.2285C60.764 18.5774 58.5247 17.6498 56.1896 17.6498ZM56.1896 20.557C57.3554 20.5583 58.4947 20.905 59.4634 21.5535C60.4322 22.2019 61.1871 23.123 61.6326 24.2002C62.0781 25.2775 62.1944 26.4627 61.9666 27.606C61.7389 28.7493 61.1774 29.7994 60.3531 30.6238C59.5288 31.4481 58.4786 32.0096 57.3353 32.2373C56.192 32.4651 55.0068 32.3488 53.9296 31.9033C52.8523 31.4577 51.9312 30.7029 51.2828 29.7341C50.6343 28.7653 50.2876 27.6261 50.2863 26.4603C50.2877 24.8951 50.9101 23.3943 52.0169 22.2875C53.1236 21.1807 54.6244 20.5584 56.1896 20.557ZM6.57637 21.6996C7.45496 21.6992 8.31714 21.9375 9.07072 22.3892C9.8243 22.8409 10.4409 23.489 10.8547 24.264L8.45528 23.2992V23.3119C7.52037 22.9693 6.48887 23.0037 5.57889 23.4079C4.66891 23.8121 3.95179 24.5543 3.57915 25.4777C3.20652 26.401 3.20759 27.4331 3.58213 28.3556C3.95667 29.2782 4.67532 30.019 5.58614 30.4213V30.434L7.63008 31.2465C7.28846 31.3234 6.93926 31.3618 6.58907 31.3607C5.30792 31.3624 4.07858 30.8551 3.17148 29.9504C2.26438 29.0456 1.75384 27.8176 1.75215 26.5365C1.75047 25.2554 2.25779 24.026 3.1625 23.1189C4.06722 22.2118 5.29523 21.7013 6.57637 21.6996ZM41.2092 35.9437C42.0658 35.944 42.9071 36.1718 43.6468 36.6039C44.3866 37.0359 44.9983 37.6567 45.4195 38.4027C45.8406 39.1487 46.0561 39.9931 46.0439 40.8497C46.0316 41.7063 45.7921 42.5443 45.3498 43.2779C44.9075 44.0116 44.2783 44.6146 43.5265 45.0253C42.7747 45.4361 41.9274 45.6398 41.071 45.6156C40.2147 45.5915 39.3802 45.3403 38.6527 44.8878C37.9253 44.4354 37.3311 43.7978 36.9309 43.0404C37.7307 43.3578 38.5178 43.6752 39.3176 44.0052C39.7872 44.199 40.2906 44.2977 40.7987 44.2957C41.3067 44.2936 41.8093 44.1908 42.2773 43.9933C42.7454 43.7958 43.1696 43.5074 43.5255 43.1448C43.8814 42.7823 44.1619 42.3528 44.3507 41.8811C44.5395 41.4095 44.633 40.9051 44.6256 40.3971C44.6182 39.8891 44.5102 39.3876 44.3078 38.9216C44.1054 38.4557 43.8126 38.0345 43.4463 37.6824C43.08 37.3303 42.6476 37.0544 42.174 36.8705L40.1555 36.058C40.5026 35.9886 40.8552 35.9504 41.2092 35.9437Z" fill="#F7F7F7"/>
</svg>
