<svg width="40" height="40" viewBox="0 0 40 40" fill="none" xmlns="http://www.w3.org/2000/svg">
<path d="M36.2501 28.7513H3.75012V31.2513H36.2501V28.7513Z" fill="#F7F7F7"/>
<path d="M33.75 32.5001H6.25V35.0001H33.75V32.5001Z" fill="#F7F7F7"/>
<path d="M37.5001 13.7504C35.5117 13.7481 33.6054 12.9572 32.1993 11.5512C30.7933 10.1452 30.0024 8.23885 30.0001 6.25043V5.00043H10.0001V6.25043C9.99785 8.23885 9.20694 10.1452 7.80091 11.5512C6.39488 12.9572 4.48855 13.7481 2.50012 13.7504H1.25012V18.7504H2.50012C4.48855 18.7527 6.39488 19.5436 7.80091 20.9496C9.20694 22.3557 9.99785 24.262 10.0001 26.2504V27.5004H30.0001V26.2504C30.0024 24.262 30.7933 22.3557 32.1993 20.9496C33.6054 19.5436 35.5117 18.7527 37.5001 18.7504H38.7501V13.7504H37.5001ZM20.0001 23.7504C18.5168 23.7504 17.0667 23.3106 15.8333 22.4864C14.6 21.6623 13.6387 20.491 13.071 19.1205C12.5034 17.7501 12.3548 16.2421 12.6442 14.7872C12.9336 13.3324 13.6479 11.996 14.6968 10.9471C15.7457 9.89823 17.0821 9.18393 18.5369 8.89454C19.9918 8.60515 21.4998 8.75367 22.8702 9.32133C24.2407 9.88899 25.412 10.8503 26.2361 12.0836C27.0602 13.317 27.5001 14.7671 27.5001 16.2504C27.4978 18.2388 26.7069 20.1452 25.3009 21.5512C23.8949 22.9572 21.9885 23.7481 20.0001 23.7504Z" fill="#F7F7F7"/>
<path d="M7.50012 6.25043V5.00043H1.25012V11.2504H2.50012C3.82576 11.249 5.09669 10.7217 6.03406 9.78436C6.97142 8.84699 7.49867 7.57606 7.50012 6.25043Z" fill="#F7F7F7"/>
<path d="M2.50012 21.2516H1.25012V27.5016H7.50012V26.2516C7.49867 24.926 6.97142 23.6551 6.03406 22.7177C5.09669 21.7803 3.82576 21.2531 2.50012 21.2516Z" fill="#F7F7F7"/>
<path d="M37.5001 11.2504H38.7501V5.00043H32.5001V6.25043C32.5016 7.57606 33.0288 8.84699 33.9662 9.78436C34.9036 10.7217 36.1745 11.249 37.5001 11.2504Z" fill="#F7F7F7"/>
<path d="M32.5001 26.2516V27.5016H38.7501V21.2516H37.5001C36.1745 21.2531 34.9036 21.7803 33.9662 22.7177C33.0288 23.6551 32.5016 24.926 32.5001 26.2516Z" fill="#F7F7F7"/>
<path d="M20.0001 21.2501C22.7615 21.2501 25.0001 19.0115 25.0001 16.2501C25.0001 13.4886 22.7615 11.2501 20.0001 11.2501C17.2387 11.2501 15.0001 13.4886 15.0001 16.2501C15.0001 19.0115 17.2387 21.2501 20.0001 21.2501Z" fill="#F7F7F7"/>
</svg>
