<svg width="53" height="46" viewBox="0 0 53 46" fill="none" xmlns="http://www.w3.org/2000/svg">
<circle cx="31.5" cy="23.5" r="21.5" fill="#F7F7F7"/>
<path d="M43.0173 18.7078C43.0173 19.3475 42.8276 19.9728 42.4722 20.5047C42.1168 21.0366 41.6117 21.4512 41.0207 21.696C40.4297 21.9408 39.7794 22.0048 39.152 21.88C38.5246 21.7552 37.9482 21.4472 37.4959 20.9948C37.0436 20.5425 36.7355 19.9662 36.6107 19.3388C36.4859 18.7114 36.55 18.0611 36.7948 17.47C37.0396 16.879 37.4541 16.3739 37.986 16.0185C38.5179 15.6631 39.1433 15.4734 39.783 15.4734C40.6408 15.4734 41.4634 15.8142 42.07 16.4207C42.6766 17.0273 43.0173 17.85 43.0173 18.7078V18.7078ZM39.765 12.4906C38.1223 12.491 36.5461 13.1394 35.3787 14.2951C34.2112 15.4507 33.5469 17.0203 33.5298 18.6629L29.6486 24.2332C29.4875 24.2152 29.3255 24.2062 29.1634 24.2062C28.328 24.2057 27.5081 24.4324 26.7916 24.8621L9.20015 17.7914C9.01207 16.9341 8.58541 16.1474 7.96939 15.5223C7.35338 14.8971 6.57313 14.4588 5.71871 14.2581C4.86428 14.0574 3.97051 14.1023 3.14056 14.3878C2.3106 14.6733 1.57829 15.1877 1.02815 15.8715C0.478008 16.5554 0.132465 17.3809 0.0314012 18.2528C-0.0696624 19.1246 0.0778737 20.0073 0.456981 20.7989C0.836088 21.5904 1.43131 22.2587 2.17395 22.7265C2.91659 23.1943 3.77637 23.4425 4.65406 23.4426C5.48953 23.4431 6.30942 23.2164 7.02593 22.7867L24.6173 29.8484C24.8519 30.9318 25.4658 31.8957 26.3483 32.5665C27.2308 33.2372 28.3239 33.5707 29.4306 33.5067C30.5372 33.4428 31.5846 32.9857 32.384 32.2177C33.1834 31.4498 33.6821 30.4215 33.7904 29.3183L39.765 24.9519C41.4175 24.9519 43.0023 24.2955 44.1707 23.127C45.3392 21.9585 45.9956 20.3737 45.9956 18.7213C45.9956 17.0688 45.3392 15.484 44.1707 14.3155C43.0023 13.147 41.4175 12.4906 39.765 12.4906V12.4906ZM39.765 14.548C40.59 14.5489 41.3962 14.7943 42.0818 15.2532C42.7674 15.7121 43.3016 16.3639 43.6169 17.1263C43.9322 17.8887 44.0145 18.7274 43.8533 19.5365C43.6922 20.3456 43.2948 21.0888 42.7114 21.6722C42.1281 22.2556 41.3849 22.6529 40.5758 22.8141C39.7666 22.9753 38.9279 22.893 38.1655 22.5777C37.4032 22.2624 36.7513 21.7282 36.2924 21.0426C35.8335 20.357 35.5881 19.5508 35.5873 18.7258C35.5882 17.618 36.0287 16.556 36.8119 15.7727C37.5952 14.9894 38.6573 14.549 39.765 14.548V14.548ZM4.65406 15.3566C5.27583 15.3563 5.88599 15.525 6.41929 15.8447C6.95259 16.1643 7.38898 16.623 7.68179 17.1715L5.98374 16.4886V16.4976C5.32212 16.2552 4.59213 16.2796 3.94815 16.5656C3.30416 16.8516 2.79666 17.3769 2.53295 18.0303C2.26924 18.6838 2.26999 19.4142 2.53505 20.0671C2.80011 20.72 3.3087 21.2442 3.95328 21.5289V21.5379L5.39976 22.1129C5.15799 22.1673 4.91087 22.1945 4.66304 22.1937C3.75639 22.1949 2.88639 21.8359 2.24444 21.1956C1.6025 20.5554 1.24119 19.6863 1.24 18.7797C1.2388 17.873 1.59783 17.003 2.23809 16.3611C2.87835 15.7191 3.7474 15.3578 4.65406 15.3566V15.3566ZM29.1634 25.4371C29.7697 25.4373 30.365 25.5985 30.8885 25.9043C31.412 26.21 31.845 26.6493 32.143 27.1773C32.4411 27.7052 32.5936 28.3028 32.5849 28.909C32.5762 29.5152 32.4067 30.1082 32.0937 30.6274C31.7807 31.1466 31.3354 31.5734 30.8034 31.8641C30.2714 32.1548 29.6717 32.2989 29.0657 32.2818C28.4596 32.2647 27.869 32.087 27.3542 31.7668C26.8394 31.4466 26.4189 30.9954 26.1357 30.4593C26.7017 30.684 27.2587 30.9086 27.8248 31.1422C28.1571 31.2793 28.5134 31.3491 28.8729 31.3477C29.2324 31.3462 29.5881 31.2735 29.9193 31.1337C30.2506 30.9939 30.5508 30.7898 30.8027 30.5333C31.0546 30.2767 31.253 29.9727 31.3867 29.6389C31.5203 29.3052 31.5864 28.9482 31.5812 28.5887C31.576 28.2292 31.4995 27.8743 31.3563 27.5445C31.213 27.2148 31.0058 26.9167 30.7466 26.6675C30.4874 26.4184 30.1814 26.2231 29.8462 26.0929L28.4177 25.5179C28.6634 25.4688 28.9129 25.4418 29.1634 25.4371Z" fill="#252331"/>
</svg>
