<svg width="40" height="40" viewBox="0 0 40 40" fill="none" xmlns="http://www.w3.org/2000/svg">
<path d="M15.6765 27.4988H11.25C9.26084 27.4988 7.35319 26.7086 5.94667 25.3021C4.54015 23.8956 3.74997 21.9879 3.74997 19.9988C3.74997 18.0097 4.54015 16.102 5.94667 14.6955C7.35319 13.289 9.26084 12.4988 11.25 12.4988H15.5789" stroke="#F7F7F7" stroke-width="2.25" stroke-linecap="round" stroke-linejoin="round"/>
<path d="M24.421 12.4988H28.7499C30.739 12.4988 32.6467 13.289 34.0532 14.6955C35.4597 16.102 36.2499 18.0097 36.2499 19.9988C36.2499 21.9879 35.4597 23.8956 34.0532 25.3021C32.6467 26.7086 30.739 27.4988 28.7499 27.4988H24.3233" stroke="#F7F7F7" stroke-width="2.25" stroke-linecap="round" stroke-linejoin="round"/>
<path d="M13.2085 19.9977H26.9475" stroke="#F7F7F7" stroke-width="2.25" stroke-linecap="round" stroke-linejoin="round"/>
</svg>
