<svg width="38" height="51" viewBox="0 0 38 51" fill="none" xmlns="http://www.w3.org/2000/svg">
<path d="M10.7831 27.0906H33.3124V24.0156C33.3124 23.8768 33.2816 23.7399 33.2223 23.6145C33.1629 23.4891 33.0765 23.3784 32.9692 23.2905C32.862 23.2025 32.7365 23.1395 32.6019 23.1059C32.4673 23.0723 32.3269 23.069 32.1909 23.0962L10.6284 26.64C10.4679 26.6719 10.3185 26.7454 10.1951 26.853C10.0717 26.9607 9.97873 27.0987 9.92529 27.2535C10.1984 27.1455 10.4894 27.0902 10.7831 27.0906V27.0906Z" fill="#F7F7F7"/>
<path d="M35.1581 28.4996H10.7831C10.5345 28.4996 10.296 28.5984 10.1202 28.7742C9.94439 28.95 9.84562 29.1885 9.84562 29.4371V46.3121C9.84562 46.5608 9.94439 46.7992 10.1202 46.975C10.296 47.1509 10.5345 47.2496 10.7831 47.2496H35.1581C35.4068 47.2496 35.6452 47.1509 35.821 46.975C35.9968 46.7992 36.0956 46.5608 36.0956 46.3121V29.4371C36.0956 29.1885 35.9968 28.95 35.821 28.7742C35.6452 28.5984 35.4068 28.4996 35.1581 28.4996ZM29.5624 39.7496C29.1916 39.7496 28.8291 39.6397 28.5207 39.4336C28.2124 39.2276 27.9721 38.9348 27.8301 38.5922C27.6882 38.2496 27.6511 37.8726 27.7234 37.5088C27.7958 37.1451 27.9744 36.811 28.2366 36.5488C28.4988 36.2866 28.8329 36.108 29.1966 36.0357C29.5603 35.9633 29.9373 36.0004 30.2799 36.1424C30.6226 36.2843 30.9154 36.5246 31.1214 36.8329C31.3274 37.1413 31.4374 37.5038 31.4374 37.8746C31.4374 38.3719 31.2399 38.8488 30.8882 39.2005C30.5366 39.5521 30.0597 39.7496 29.5624 39.7496Z" fill="#F7F7F7"/>
<path d="M9.83569 36.2018V27.7936C9.83569 27.0711 10.1708 26.7108 10.7392 26.6217C12.8017 26.2977 17.1013 26.1237 17.1013 26.1237C17.1013 26.1237 16.6132 27.0612 15.5 27.0612V28.4967C16.5839 28.4967 17.3357 29.8737 17.3357 29.8737L12.9705 34.8248L9.83569 36.2018Z" fill="#F7F7F7"/>
<path d="M22.7483 21.7789L19.0437 19.2243C22.1411 14.7325 24.5879 13.9719 28.2832 13.7523C23.6822 10.5795 17.9688 8.89279 13.4868 15.3924L9.78219 12.8379L11.5818 24.1002L22.7483 21.7789Z" stroke="#F7F7F7" stroke-width="1.5" stroke-linejoin="round"/>
</svg>
