<svg width="91" height="91" viewBox="0 0 91 91" fill="none" xmlns="http://www.w3.org/2000/svg">
<path d="M45.5004 8.52698C25.1161 8.52698 8.53168 25.1114 8.53168 45.4957C8.53168 65.8801 25.1161 82.4645 45.5004 82.4645C65.8848 82.4645 82.4692 65.8801 82.4692 45.4957C82.4692 25.1114 65.8848 8.52698 45.5004 8.52698ZM45.8559 25.5895C48.3869 25.5895 50.861 26.34 52.9655 27.7461C55.0699 29.1523 56.7101 31.1509 57.6787 33.4892C58.6472 35.8275 58.9006 38.4005 58.4069 40.8829C57.9131 43.3652 56.6943 45.6454 54.9046 47.4351C53.115 49.2248 50.8348 50.4436 48.3524 50.9373C45.8701 51.4311 43.2971 51.1777 40.9587 50.2091C38.6204 49.2406 36.6218 47.6003 35.2157 45.4959C33.8095 43.3915 33.059 40.9173 33.059 38.3864C33.059 34.9924 34.4073 31.7375 36.8071 29.3376C39.207 26.9377 42.4619 25.5895 45.8559 25.5895V25.5895ZM45.5004 76.777C41.1858 76.7788 36.9178 75.8857 32.9659 74.1542C29.014 72.4227 25.4642 69.8903 22.5407 66.7172C24.1119 58.5805 38.224 56.8707 45.5004 56.8707C52.7769 56.8707 66.889 58.5805 68.4601 66.7154C65.537 69.8891 61.9873 72.422 58.0354 74.1538C54.0834 75.8856 49.8152 76.7789 45.5004 76.777V76.777Z" fill="#F7F7F7"/>
</svg>
