<svg width="36" height="50" viewBox="0 0 36 50" fill="none" xmlns="http://www.w3.org/2000/svg">
<path d="M19.031 22.5876L17.4167 18.3872C12.3236 20.3445 11.0103 22.5446 9.93003 26.0853C7.92507 20.8684 7.62559 14.9188 14.9952 12.0865L13.3809 7.88599L23.9068 12.2772L19.031 22.5876Z" stroke="#F7F7F7" stroke-width="1.5" stroke-linejoin="round"/>
<path d="M8.78311 26.0907H31.3124V23.0157C31.3124 22.877 31.2816 22.74 31.2223 22.6146C31.1629 22.4892 31.0765 22.3785 30.9692 22.2906C30.862 22.2027 30.7365 22.1396 30.6019 22.106C30.4673 22.0724 30.3269 22.0691 30.1909 22.0964L8.62842 25.6401C8.46786 25.6721 8.31846 25.7455 8.19511 25.8531C8.07175 25.9608 7.97873 26.0988 7.92529 26.2536C8.19838 26.1456 8.48945 26.0903 8.78311 26.0907V26.0907Z" fill="#F7F7F7"/>
<path d="M33.1581 27.4998H8.78313C8.53449 27.4998 8.29603 27.5985 8.12021 27.7743C7.9444 27.9502 7.84563 28.1886 7.84563 28.4373V45.3123C7.84563 45.5609 7.9444 45.7993 8.12021 45.9752C8.29603 46.151 8.53449 46.2497 8.78313 46.2497H33.1581C33.4068 46.2497 33.6452 46.151 33.821 45.9752C33.9968 45.7993 34.0956 45.5609 34.0956 45.3123V28.4373C34.0956 28.1886 33.9968 27.9502 33.821 27.7743C33.6452 27.5985 33.4068 27.4998 33.1581 27.4998ZM27.5624 38.7498C27.1916 38.7498 26.8291 38.6398 26.5207 38.4338C26.2124 38.2277 25.9721 37.9349 25.8301 37.5923C25.6882 37.2497 25.6511 36.8727 25.7234 36.509C25.7958 36.1452 25.9744 35.8112 26.2366 35.5489C26.4988 35.2867 26.8329 35.1081 27.1966 35.0358C27.5603 34.9634 27.9373 35.0006 28.2799 35.1425C28.6226 35.2844 28.9154 35.5247 29.1214 35.8331C29.3274 36.1414 29.4374 36.5039 29.4374 36.8748C29.4374 37.372 29.2399 37.8489 28.8882 38.2006C28.5366 38.5522 28.0597 38.7498 27.5624 38.7498Z" fill="#F7F7F7"/>
<path d="M7.83569 35.2019V26.7937C7.83569 26.0712 8.17085 25.7109 8.73921 25.6218C10.8017 25.2978 15.1013 25.1238 15.1013 25.1238C15.1013 25.1238 14.6132 26.0613 13.5 26.0613V27.4968C14.5839 27.4968 15.3357 28.8738 15.3357 28.8738L10.9705 33.8249L7.83569 35.2019Z" fill="#F7F7F7"/>
</svg>
