<svg width="40" height="40" viewBox="0 0 40 40" fill="none" xmlns="http://www.w3.org/2000/svg">
<path d="M37.4228 34.9828L20.972 4.42579C20.9186 4.32638 20.8391 4.24331 20.7422 4.1854C20.6453 4.1275 20.5345 4.09692 20.4217 4.09692C20.3088 4.09692 20.198 4.1275 20.1011 4.1854C20.0042 4.24331 19.9247 4.32638 19.8713 4.42579L3.41736 34.9828C3.36613 35.0781 3.34048 35.185 3.34293 35.2931C3.34539 35.4012 3.37586 35.5068 3.43136 35.5997C3.48686 35.6925 3.5655 35.7693 3.65959 35.8226C3.75368 35.876 3.85999 35.904 3.96814 35.9039H36.8759C36.9838 35.9033 37.0896 35.8748 37.1831 35.8212C37.2767 35.7676 37.3548 35.6907 37.4098 35.598C37.4649 35.5053 37.495 35.3999 37.4973 35.2921C37.4995 35.1843 37.4739 35.0778 37.4228 34.9828ZM21.9838 32.1477H18.8588V29.0227H21.9838V32.1477ZM21.6713 27.1539H19.1713L18.7025 14.6539H22.14L21.6713 27.1539Z" fill="url(#paint0_linear_76_266)"/>
<defs>
<linearGradient id="paint0_linear_76_266" x1="34.2919" y1="11.3899" x2="7.01777" y2="31.2018" gradientUnits="userSpaceOnUse">
<stop stop-color="#753EF9"/>
<stop offset="1" stop-color="#9D75FF"/>
</linearGradient>
</defs>
</svg>
